<svg xmlns="http://www.w3.org/2000/svg" width="1401" height="352" viewBox="0 0 1401 352" fill="none">
<path d="M121.656 67.0055L146.887 92.4641L41.2313 199.072L16 173.613L121.656 67.0055Z" fill="white"/>
<path d="M241.504 187.934L266.736 213.392L161.08 320L135.848 294.541L241.504 187.934Z" fill="white"/>
<path d="M216.273 92.4641L241.504 117.923L101.155 259.536L75.9242 234.077L216.273 92.4641Z" fill="white"/>
<path d="M301.429 127.47L276.197 152.928L181.58 57.4586L206.811 32L301.429 127.47Z" fill="white"/>
<path d="M465.078 242.847H503.997V142.155H544.405V109.144H424.856V142.155H465.078V242.847Z" fill="white"/>
<path d="M611.421 143.077C610.862 142.892 609.931 142.892 609 142.892H606.766C595.779 142.892 584.606 150.269 580.696 162.625V143.63H544.384V242.847H581.627V193.976C581.627 180.698 590.193 177.01 602.11 177.01C605.648 177.01 608.628 177.563 611.421 178.116V143.077Z" fill="white"/>
<path d="M684.384 179.96C641.928 182.911 618.093 192.317 618.093 215.553C618.093 233.258 634.293 245.245 653.845 245.245C667.997 245.245 680.474 241.003 687.922 229.938V242.847H722.558C721.44 234.733 720.696 222.93 720.696 212.787V203.013L720.882 184.018C721.44 150.822 700.771 140.126 672.094 140.126C639.135 140.126 622.003 158.199 620.513 176.825H652.542C653.845 168.158 659.99 164.1 669.487 164.1C677.494 164.1 684.384 166.313 684.384 177.194V179.96ZM685.688 201.353C685.688 216.66 677.494 220.533 667.811 220.533C659.059 220.533 655.521 215.738 655.521 211.496C655.521 202.828 665.763 199.693 685.688 198.402V201.353Z" fill="white"/>
<path d="M809.098 157.461C804.629 148.794 793.829 141.417 778.932 141.417C756.587 141.417 735.172 158.937 735.172 193.239C735.172 227.541 756.587 245.245 778.932 245.245C793.829 245.245 804.629 237.868 809.098 229.2V242.847H846.341V109.144H809.098V157.461ZM810.402 193.239C810.402 208.177 802.767 217.766 792.339 217.766C781.725 217.766 775.022 207.255 775.022 193.239C775.022 179.223 781.725 168.895 792.339 168.895C802.767 168.895 810.402 178.301 810.402 193.239Z" fill="white"/>
<path d="M917.975 245.429C949.258 245.429 966.017 224.037 970.486 209.468H935.479C933.244 214.816 925.795 218.32 918.533 218.32C906.802 218.32 899.726 211.865 898.422 201.722H970.673C973.093 167.236 951.307 139.942 916.299 139.942C885.946 139.942 862.297 160.228 862.297 191.948C862.297 223.115 882.594 245.429 917.975 245.429ZM918.719 165.207C926.727 165.207 936.782 169.449 937.713 181.251H898.981C901.402 169.449 910.898 165.207 918.719 165.207Z" fill="white"/>
<path d="M987.393 109.144V242.847H1026.31V199.324H1042.33C1077.52 199.324 1103.96 190.657 1103.96 154.326C1103.96 117.996 1077.52 109.144 1042.33 109.144H987.393ZM1045.86 140.31C1057.04 140.31 1063.55 144.552 1063.55 154.326C1063.55 163.916 1057.04 168.158 1045.86 168.158H1026.31V140.31H1045.86Z" fill="white"/>
<path d="M1164.35 168.158C1173.85 168.158 1181.11 174.612 1181.11 193.054C1181.11 211.496 1173.85 217.766 1164.35 217.766C1154.86 217.766 1147.59 211.496 1147.59 193.054C1147.59 174.612 1154.86 168.158 1164.35 168.158ZM1164.35 245.245C1193.96 245.245 1219.47 227.909 1219.47 193.054C1219.47 158.383 1193.96 140.679 1164.35 140.679C1134.37 140.679 1109.23 158.383 1109.23 193.054C1109.23 227.909 1134.37 245.245 1164.35 245.245Z" fill="white"/>
<path d="M1301.9 143.077C1301.34 142.892 1300.41 142.892 1299.48 142.892H1297.24C1286.26 142.892 1275.08 150.269 1271.17 162.625V143.63H1234.86V242.847H1272.1V193.976C1272.1 180.698 1280.67 177.01 1292.59 177.01C1296.13 177.01 1299.1 177.563 1301.9 178.116V143.077Z" fill="white"/>
<path d="M1323.82 143.63H1303.71V166.867H1323.82V212.972C1323.82 240.266 1333.31 242.847 1360.87 242.847H1386.57V217.951H1368.32C1363.29 217.951 1361.06 216.844 1361.06 211.127V166.867H1386.57V143.63H1361.06V116.336H1323.82V143.63Z" fill="white"/>
</svg>
